<?xml version="1.0" encoding="utf-8"?>
<!-- Generator: Adobe Illustrator 22.1.0, SVG Export Plug-In . SVG Version: 6.00 Build 0)  -->
<svg version="1.1" id="Layer_1" xmlns="http://www.w3.org/2000/svg" xmlns:xlink="http://www.w3.org/1999/xlink" x="0px" y="0px"
	 viewBox="0 0 272 150" style="enable-background:new 0 0 272 150;" xml:space="preserve">
<style type="text/css">
	.st0{fill:#494949;}
	.st1{font-family:'RodeoRoundup';}
	.st2{font-size:36px;}
</style>
<path class="st0" d="M171.7,73.2c-0.6-0.6-1.5-0.8-2.3-0.7c-3.1,0.4-8,0.8-12.9,0.6c-3.3-0.2-6.4-0.8-9.2-1.7l-10.3-29.7
	c9.8-3.2,18-4.5,22.6-5c1-0.1,1.8-0.7,2.2-1.5c0.5-0.9,0.5-1.9,0-2.7c-6.3-12.2-20-18.6-33.3-15.3l-0.2-0.7
	c-0.3-0.7-0.8-1.3-1.5-1.7c-0.7-0.3-1.5-0.4-2.2-0.1l0,0c-1.5,0.5-2.3,2.2-1.8,3.7l0.2,0.7c-12.4,5.8-19.2,19.4-16.7,32.8
	c0.2,1,0.8,1.8,1.7,2.2c0.9,0.4,1.9,0.3,2.7-0.2c3.7-2.4,10.5-6.3,20.7-10.2l8.6,25c-7-3-13.6-6.1-22.4-4.8
	c-5.6,0.9-10.1,5.3-11.7,7.3c-0.5,0.5-0.7,1.2-0.7,1.9v6.4c0,1.6,1.3,2.9,2.9,2.9h61.6c1.6,0,2.9-1.3,2.9-2.9v-4
	C172.7,74.5,172.4,73.7,171.7,73.2z"/>
<text transform="matrix(1 0 0 1 24 126)" class="st0 st1 st2">Seaside Admin</text>
</svg>
